v -1.5666707754135132 4.66664652129044288 -0.24999961985337588
v -0.89996343851089472 3.93330888052812352 -0.24999973932924672
v -1.5666707754135132 3.53332523604265528 -0.24999980449485608
v 1.5666707754135132 4.66664652129044288 -0.24999961985337588
v -0.96664434671401984 3.53332523604265528 -0.24999980449485608
v 0.3533426523208618 3.93330888052812352 -0.24999973932924672
v -0.6999715566635132 4.0730202321981324E-08 -0.2500003801466174
v -1.5666707754135132 4.0730202321981324E-08 -0.2500003801466174
v -0.6999715566635132 -1.629203647582462E-08 0.09999961389291346
v -1.326532244682312 0.149999989668426 0.09999963833101716
v -1.5666707754135132 -1.629203647582462E-08 0.09999961389291346
v -0.79387247562408448 0.149999989668426 0.09999963833101716
v 1.32705652713775636 4.51664636890077456 0.10000034974803668
v 1.5666707754135132 4.6666464642682044 0.10000037418615498
v -1.5666707754135132 4.6666464642682044 0.10000037418615498
v -1.41667076945304872 4.51664636890077456 0.10000034974803668
v -1.41667076945304872 3.68332527438784616 0.10000021398279308
v 0.3533426523208618 3.93330882350588464 0.10000025471028418
v 0.59348118305206296 4.08330868045473583 0.10000027914836362
v -1.5666707754135132 3.53332517902041632 0.10000018954467476
v -0.96664434671401984 3.53332517902041632 0.10000018954467476
v -1.09370806813240052 3.68332527438784616 0.10000021398279308
v -1.0270271897315979 4.08330868045473583 0.10000027914836362
v -0.89996343851089472 3.93330882350588464 0.10000025471028418
v -1.5666707754135132 4.6666464642682044 0.10000037418615498
v 1.5666707754135132 4.66664652129044288 -0.24999961985337588
v -1.5666707754135132 4.66664652129044288 -0.24999961985337588
v 1.5666707754135132 4.6666464642682044 0.10000037418615498
v 1.5666707754135132 4.66664652129044288 -0.24999961985337588
v -0.6999715566635132 -1.629203647582462E-08 0.09999961389291346
v -0.6999715566635132 4.0730202321981324E-08 -0.2500003801466174
v 1.5666707754135132 4.6666464642682044 0.10000037418615498
v -0.6999715566635132 -1.629203647582462E-08 0.09999961389291346
v -1.5666707754135132 4.0730202321981324E-08 -0.2500003801466174
v -0.6999715566635132 4.0730202321981324E-08 -0.2500003801466174
v -1.5666707754135132 -1.629203647582462E-08 0.09999961389291346
v 0.3533426523208618 3.93330882350588464 0.10000025471028418
v -1.5666707754135132 4.0730202321981324E-08 -0.2500003801466174
v -1.5666707754135132 -1.629203647582462E-08 0.09999961389291346
v 0.3533426523208618 3.93330888052812352 -0.24999973932924672
v 0.3533426523208618 3.93330882350588464 0.10000025471028418
v -0.89996343851089472 3.93330888052812352 -0.24999973932924672
v 0.3533426523208618 3.93330888052812352 -0.24999973932924672
v -0.89996343851089472 3.93330882350588464 0.10000025471028418
v -0.89996343851089472 3.93330888052812352 -0.24999973932924672
v -0.96664434671401984 3.53332517902041632 0.10000018954467476
v -0.96664434671401984 3.53332523604265528 -0.24999980449485608
v -0.89996343851089472 3.93330882350588464 0.10000025471028418
v -0.96664434671401984 3.53332517902041632 0.10000018954467476
v -1.5666707754135132 3.53332523604265528 -0.24999980449485608
v -0.96664434671401984 3.53332523604265528 -0.24999980449485608
v -1.5666707754135132 3.53332517902041632 0.10000018954467476
v -1.5666707754135132 4.6666464642682044 0.10000037418615498
v -1.5666707754135132 3.53332523604265528 -0.24999980449485608
v -1.5666707754135132 3.53332517902041632 0.10000018954467476
v -1.5666707754135132 4.66664652129044288 -0.24999961985337588
v -0.79387247562408448 0.14999996523032228 0.24999964429147968
v 0.59348118305206296 4.08330865601663184 0.25000028510882612
v -1.326532244682312 0.14999996523032228 0.24999964429147968
v 1.32705652713775636 4.51664634446267056 0.25000035570849912
v -1.09370806813240052 3.68332524994974264 0.2500002199432556
v -1.41667076945304872 4.51664634446267056 0.25000035570849912
v -1.41667076945304872 3.68332524994974264 0.2500002199432556
v -1.0270271897315979 4.08330865601663184 0.25000028510882612
v -1.0270271897315979 4.08330868045473583 0.10000027914836362
v -1.09370806813240052 3.68332524994974264 0.2500002199432556
v -1.09370806813240052 3.68332527438784616 0.10000021398279308
v -1.0270271897315979 4.08330865601663184 0.25000028510882612
v 0.59348118305206296 4.08330865601663184 0.25000028510882612
v -1.0270271897315979 4.08330868045473583 0.10000027914836362
v 0.59348118305206296 4.08330868045473583 0.10000027914836362
v -1.0270271897315979 4.08330865601663184 0.25000028510882612
v 0.59348118305206296 4.08330865601663184 0.25000028510882612
v -1.326532244682312 0.149999989668426 0.09999963833101716
v -1.326532244682312 0.14999996523032228 0.24999964429147968
v 0.59348118305206296 4.08330868045473583 0.10000027914836362
v -0.79387247562408448 0.14999996523032228 0.24999964429147968
v -1.326532244682312 0.149999989668426 0.09999963833101716
v -0.79387247562408448 0.149999989668426 0.09999963833101716
v -1.326532244682312 0.14999996523032228 0.24999964429147968
v 1.32705652713775636 4.51664636890077456 0.10000034974803668
v -0.79387247562408448 0.14999996523032228 0.24999964429147968
v -0.79387247562408448 0.149999989668426 0.09999963833101716
v 1.32705652713775636 4.51664634446267056 0.25000035570849912
v -1.41667076945304872 4.51664634446267056 0.25000035570849912
v 1.32705652713775636 4.51664636890077456 0.10000034974803668
v -1.41667076945304872 4.51664636890077456 0.10000034974803668
v 1.32705652713775636 4.51664634446267056 0.25000035570849912
v -1.41667076945304872 4.51664634446267056 0.25000035570849912
v -1.41667076945304872 3.68332527438784616 0.10000021398279308
v -1.41667076945304872 3.68332524994974264 0.2500002199432556
v -1.41667076945304872 4.51664636890077456 0.10000034974803668
v -1.09370806813240052 3.68332524994974264 0.2500002199432556
v -1.41667076945304872 3.68332527438784616 0.10000021398279308
v -1.09370806813240052 3.68332527438784616 0.10000021398279308
v -1.41667076945304872 3.68332524994974264 0.2500002199432556
# 96 vertices

vn 0 1.629206850539683E-07 -0.99999999999998672
vn 0 1.629206850539683E-07 -0.99999999999998672
vn 0 1.629206850539683E-07 -0.99999999999998672
vn 0 1.629206850539683E-07 -0.99999999999998672
vn 0 1.629206850539683E-07 -0.99999999999998672
vn 0 1.629206850539683E-07 -0.99999999999998672
vn 0 1.629206850539683E-07 -0.99999999999998672
vn 0 1.629206850539683E-07 -0.99999999999998672
vn 0 1.629206850539683E-07 -0.99999999999998672
vn 0 1.629206850539683E-07 -0.99999999999998672
vn 0 1.629206850539683E-07 -0.99999999999998672
vn 0 1.629206850539683E-07 -0.99999999999998672
vn 0 1.629206850539683E-07 -0.99999999999998672
vn 0 1.629206850539683E-07 -0.99999999999998672
vn 0 1.629206850539683E-07 -0.99999999999998672
vn 0 1.629206850539683E-07 -0.99999999999998672
vn 0 1.629206850539683E-07 -0.99999999999998672
vn 0 1.629206850539683E-07 -0.99999999999998672
vn 0 -1.629206850539683E-07 0.99999999999998672
vn 0 -1.629206850539683E-07 0.99999999999998672
vn 0 -1.629206850539683E-07 0.99999999999998672
vn 0 -1.629206850539683E-07 0.99999999999998672
vn 0 -1.629206850539683E-07 0.99999999999998672
vn 0 -1.629206850539683E-07 0.99999999999998672
vn 0 -1.629206850539683E-07 0.99999999999998672
vn 0 -1.629206850539683E-07 0.99999999999998672
vn 0 -1.629206850539683E-07 0.99999999999998672
vn 0 -1.629206850539683E-07 0.99999999999998672
vn 0 -1.629206850539683E-07 0.99999999999998672
vn 0 -1.629206850539683E-07 0.99999999999998672
vn 0 -1.629206850539683E-07 0.99999999999998672
vn 0 -1.629206850539683E-07 0.99999999999998672
vn 0 -1.629206850539683E-07 0.99999999999998672
vn 0 -1.629206850539683E-07 0.99999999999998672
vn 0 -1.629206850539683E-07 0.99999999999998672
vn 0 -1.629206850539683E-07 0.99999999999998672
vn 0 -1.629206850539683E-07 0.99999999999998672
vn 0 -1.629206850539683E-07 0.99999999999998672
vn 0 -1.629206850539683E-07 0.99999999999998672
vn 0 -1.629206850539683E-07 0.99999999999998672
vn 0 -1.629206850539683E-07 0.99999999999998672
vn 0 -1.629206850539683E-07 0.99999999999998672
vn 0 -1.629206850539683E-07 0.99999999999998672
vn 0 -1.629206850539683E-07 0.99999999999998672
vn 0 -1.629206850539683E-07 0.99999999999998672
vn 0 -1.629206850539683E-07 0.99999999999998672
vn 0 -1.629206850539683E-07 0.99999999999998672
vn 0 -1.629206850539683E-07 0.99999999999998672
vn 0 -1.629206850539683E-07 0.99999999999998672
vn 0 -1.629206850539683E-07 0.99999999999998672
vn 0 -1.629206850539683E-07 0.99999999999998672
vn 0 -1.629206850539683E-07 0.99999999999998672
vn 0 -1.629206850539683E-07 0.99999999999998672
vn 0 -1.629206850539683E-07 0.99999999999998672
vn 0 -1.629206850539683E-07 0.99999999999998672
vn 0 -1.629206850539683E-07 0.99999999999998672
vn 0 -1.629206850539683E-07 0.99999999999998672
vn 0 -1.629206850539683E-07 0.99999999999998672
vn 0 -1.629206850539683E-07 0.99999999999998672
vn 0 -1.629206850539683E-07 0.99999999999998672
vn 0 -1.629206850539683E-07 0.99999999999998672
vn 0 -1.629206850539683E-07 0.99999999999998672
vn 0 -1.629206850539683E-07 0.99999999999998672
vn 0 -1.629206850539683E-07 0.99999999999998672
vn 0 -1.629206850539683E-07 0.99999999999998672
vn 0 -1.629206850539683E-07 0.99999999999998672
vn 0 0.99999999999998672 1.629206850539683E-07
vn 0 0.99999999999998672 1.629206850539683E-07
vn 0 0.99999999999998672 1.629206850539683E-07
vn 0 0.99999999999998672 1.629206850539683E-07
vn 0 0.99999999999998672 1.629206850539683E-07
vn 0 0.99999999999998672 1.629206850539683E-07
vn 0.89950925111770624 -0.43690168857573888 -7.118032240399584E-08
vn 0.89950925111770624 -0.43690168857573888 -7.118032240399584E-08
vn 0.89950925111770624 -0.43690168857573888 -7.118032240399584E-08
vn 0.89950925111770624 -0.43690168857573888 -7.118032240399584E-08
vn 0.89950925111770624 -0.43690168857573888 -7.118032240399584E-08
vn 0.89950925111770624 -0.43690168857573888 -7.118032240399584E-08
vn 0 -0.99999999999998672 -1.629206850539683E-07
vn 0 -0.99999999999998672 -1.629206850539683E-07
vn 0 -0.99999999999998672 -1.629206850539683E-07
vn 0 -0.99999999999998672 -1.629206850539683E-07
vn 0 -0.99999999999998672 -1.629206850539683E-07
vn 0 -0.99999999999998672 -1.629206850539683E-07
vn -0.89864903688430784 0.43866837024688136 7.146815139213068E-08
vn -0.89864903688430784 0.43866837024688136 7.146815139213068E-08
vn -0.89864903688430784 0.43866837024688136 7.146815139213068E-08
vn -0.89864903688430784 0.43866837024688136 7.146815139213068E-08
vn -0.89864903688430784 0.43866837024688136 7.146815139213068E-08
vn -0.89864903688430784 0.43866837024688136 7.146815139213068E-08
vn 0 -0.99999999999998672 -1.629206850539683E-07
vn 0 -0.99999999999998672 -1.629206850539683E-07
vn 0 -0.99999999999998672 -1.629206850539683E-07
vn 0 -0.99999999999998672 -1.629206850539683E-07
vn 0 -0.99999999999998672 -1.629206850539683E-07
vn 0 -0.99999999999998672 -1.629206850539683E-07
vn 0.98638713359832768 -0.16443966329097528 -2.679062259340994E-08
vn 0.98638713359832768 -0.16443966329097528 -2.679062259340994E-08
vn 0.98638713359832768 -0.16443966329097528 -2.679062259340994E-08
vn 0.98638713359832768 -0.16443966329097528 -2.679062259340994E-08
vn 0.98638713359832768 -0.16443966329097528 -2.679062259340994E-08
vn 0.98638713359832768 -0.16443966329097528 -2.679062259340994E-08
vn 0 -0.99999999999998672 -1.629206850539683E-07
vn 0 -0.99999999999998672 -1.629206850539683E-07
vn 0 -0.99999999999998672 -1.629206850539683E-07
vn 0 -0.99999999999998672 -1.629206850539683E-07
vn 0 -0.99999999999998672 -1.629206850539683E-07
vn 0 -0.99999999999998672 -1.629206850539683E-07
vn -1 0 0
vn -1 0 0
vn -1 0 0
vn -1 0 0
vn -1 0 0
vn -1 0 0
vn 0 -1.629206850539683E-07 0.99999999999998672
vn 0 -1.629206850539683E-07 0.99999999999998672
vn 0 -1.629206850539683E-07 0.99999999999998672
vn 0 -1.629206850539683E-07 0.99999999999998672
vn 0 -1.629206850539683E-07 0.99999999999998672
vn 0 -1.629206850539683E-07 0.99999999999998672
vn 0 -1.629206850539683E-07 0.99999999999998672
vn 0 -1.629206850539683E-07 0.99999999999998672
vn 0 -1.629206850539683E-07 0.99999999999998672
vn 0 -1.629206850539683E-07 0.99999999999998672
vn 0 -1.629206850539683E-07 0.99999999999998672
vn 0 -1.629206850539683E-07 0.99999999999998672
vn 0 -1.629206850539683E-07 0.99999999999998672
vn 0 -1.629206850539683E-07 0.99999999999998672
vn 0 -1.629206850539683E-07 0.99999999999998672
vn 0 -1.629206850539683E-07 0.99999999999998672
vn 0 -1.629206850539683E-07 0.99999999999998672
vn 0 -1.629206850539683E-07 0.99999999999998672
vn 0.98638713359832768 -0.16443966329097528 -2.679062259340994E-08
vn 0.98638713359832768 -0.16443966329097528 -2.679062259340994E-08
vn 0.98638713359832768 -0.16443966329097528 -2.679062259340994E-08
vn 0.98638713359832768 -0.16443966329097528 -2.679062259340994E-08
vn 0.98638713359832768 -0.16443966329097528 -2.679062259340994E-08
vn 0.98638713359832768 -0.16443966329097528 -2.679062259340994E-08
vn 0 -0.99999999999998672 -1.629206850539683E-07
vn 0 -0.99999999999998672 -1.629206850539683E-07
vn 0 -0.99999999999998672 -1.629206850539683E-07
vn 0 -0.99999999999998672 -1.629206850539683E-07
vn 0 -0.99999999999998672 -1.629206850539683E-07
vn 0 -0.99999999999998672 -1.629206850539683E-07
vn -0.89864903688430784 0.43866837024688136 7.146815139213068E-08
vn -0.89864903688430784 0.43866837024688136 7.146815139213068E-08
vn -0.89864903688430784 0.43866837024688136 7.146815139213068E-08
vn -0.89864903688430784 0.43866837024688136 7.146815139213068E-08
vn -0.89864903688430784 0.43866837024688136 7.146815139213068E-08
vn -0.89864903688430784 0.43866837024688136 7.146815139213068E-08
vn 3.3088270058415374E-17 -0.99999999999998672 -1.629206850539683E-07
vn 3.3088270058415374E-17 -0.99999999999998672 -1.629206850539683E-07
vn 3.3088270058415374E-17 -0.99999999999998672 -1.629206850539683E-07
vn 3.3088270058415374E-17 -0.99999999999998672 -1.629206850539683E-07
vn 3.3088270058415374E-17 -0.99999999999998672 -1.629206850539683E-07
vn 3.3088270058415374E-17 -0.99999999999998672 -1.629206850539683E-07
vn 0.89950925111770624 -0.43690168857573888 -7.118032240399584E-08
vn 0.89950925111770624 -0.43690168857573888 -7.118032240399584E-08
vn 0.89950925111770624 -0.43690168857573888 -7.118032240399584E-08
vn 0.89950925111770624 -0.43690168857573888 -7.118032240399584E-08
vn 0.89950925111770624 -0.43690168857573888 -7.118032240399584E-08
vn 0.89950925111770624 -0.43690168857573888 -7.118032240399584E-08
vn 0 0.99999999999998672 1.629206850539683E-07
vn 0 0.99999999999998672 1.629206850539683E-07
vn 0 0.99999999999998672 1.629206850539683E-07
vn 0 0.99999999999998672 1.629206850539683E-07
vn 0 0.99999999999998672 1.629206850539683E-07
vn 0 0.99999999999998672 1.629206850539683E-07
vn -1 0 0
vn -1 0 0
vn -1 0 0
vn -1 0 0
vn -1 0 0
vn -1 0 0
vn 0 -0.99999999999998672 -1.629206850539683E-07
vn 0 -0.99999999999998672 -1.629206850539683E-07
vn 0 -0.99999999999998672 -1.629206850539683E-07
vn 0 -0.99999999999998672 -1.629206850539683E-07
vn 0 -0.99999999999998672 -1.629206850539683E-07
vn 0 -0.99999999999998672 -1.629206850539683E-07
# 180 vertex normals

vt -0.05248462781310081 1.83726227283477776 0
vt -0.31496784090995788 1.54854679107666016 0
vt -0.05248462781310081 1.39107286930084232 0
vt -1.28608357906341552 1.83726227283477776 0
vt -0.28871551156044008 1.39107286930084232 0
vt -0.80839544534683232 1.54854679107666016 0
vt -0.3937048017978668 0 0
vt -0.05248462781310081 0 0
vt 0.3937048017978668 0 0
vt 0.14702735841274262 0.05905511975288391 0
vt 0.05248462781310081 0 0
vt 0.3567359149456024 0.05905511975288391 0
vt 1.1917473077774048 1.77820718288421632 0
vt 1.28608357906341552 1.83726227283477776 0
vt 0.05248462781310081 1.83726227283477776 0
vt 0.11153974384069442 1.77820718288421632 0
vt 0.11153974384069442 1.45012807846069336 0
vt 0.80839544534683232 1.54854679107666016 0
vt 0.90293812751770016 1.60760188102722168 0
vt 0.05248462781310081 1.39107286930084232 0
vt 0.28871551156044008 1.39107286930084232 0
vt 0.23869042098522188 1.45012807846069336 0
vt 0.26494273543357848 1.60760188102722168 0
vt 0.31496784090995788 1.54854679107666016 0
vt -0.05248462781310081 0.13779526948928834 0
vt -1.28608357906341552 0 0
vt -1.28608357906341552 0.13779526948928834 0
vt 2.21452665328979492 0 0
vt 0.17201028764247894 0.13779526948928834 0
vt 0.17201028764247894 0 0
vt 2.21452665328979492 0.13779526948928834 0
vt 0.3937048017978668 0.13779526948928834 0
vt 0.05248462781310081 0.13779526948928834 0
vt -1.7462176084518432 0.13779526948928834 0
vt -0.02302334643900394 0 0
vt -0.02302334643900394 0.13779526948928834 0
vt -1.7462176084518432 0 0
vt 0.80839544534683232 0.13779526948928834 0
vt 0.31496784090995788 0 0
vt 0.80839544534683232 0 0
vt 0.31496784090995788 0.13779526948928834 0
vt 1.57925987243652344 0 0
vt 1.4196127653121948 0.13779526948928834 0
vt 1.4196127653121948 0 0
vt 1.57925987243652344 0.13779526948928834 0
vt 0.28871551156044008 0.13779526948928834 0
vt 0.28871551156044008 0 0
vt -1.83726227283477776 0.13779526948928834 0
vt -1.39107286930084232 0 0
vt -1.39107286930084232 0.13779526948928834 0
vt -1.83726227283477776 0 0
vt 1.6292849779129028 0.13779526948928834 0
vt 1.46963787078857424 0.19685038924217224 0
vt 1.46963787078857424 0.13779526948928834 0
vt 1.6292849779129028 0.19685038924217224 0
vt 0.90293812751770016 0.19685038924217224 0
vt 0.26494273543357848 0.13779526948928834 0
vt 0.90293812751770016 0.13779526948928834 0
vt 0.26494273543357848 0.19685038924217224 0
vt -1.840760350227356 0.19685038924217224 0
vt -0.1175660714507103 0.13779526948928834 0
vt -0.1175660714507103 0.19685038924217224 0
vt -1.840760350227356 0.13779526948928834 0
vt 0.3567359149456024 0.19685038924217224 0
vt 0.14702735841274262 0.13779526948928834 0
vt 0.3567359149456024 0.13779526948928834 0
vt 0.14702735841274262 0.19685038924217224 0
vt 2.12019038200378418 0.13779526948928834 0
vt 0.20897915959358216 0.19685038924217224 0
vt 0.20897915959358216 0.13779526948928834 0
vt 2.12019038200378418 0.19685038924217224 0
vt -0.11153974384069442 0.19685038924217224 0
vt -1.1917473077774048 0.13779526948928834 0
vt -0.11153974384069442 0.13779526948928834 0
vt -1.1917473077774048 0.19685038924217224 0
vt -1.77820718288421632 0.19685038924217224 0
vt -1.45012807846069336 0.13779526948928834 0
vt -1.45012807846069336 0.19685038924217224 0
vt -1.77820718288421632 0.13779526948928834 0
vt 0.23869042098522188 0.19685038924217224 0
vt 0.11153974384069442 0.13779526948928834 0
vt 0.23869042098522188 0.13779526948928834 0
vt 0.11153974384069442 0.19685038924217224 0
# 83 texture coords

g 7
usemtl font
s 1
f 1/1/1 2/2/2 3/3/3
f 2/2/4 1/1/5 4/4/6
f 3/3/7 2/2/8 5/5/9
f 2/2/10 4/4/11 6/6/12
f 6/6/13 7/7/14 8/8/15
f 7/7/16 6/6/17 4/4/18
f 9/9/19 10/10/20 11/11/21
f 10/10/22 9/9/23 12/12/24
f 12/12/25 9/9/26 13/13/27
f 13/13/28 9/9/29 14/14/30
f 15/15/31 16/16/32 14/14/33
f 16/16/34 15/15/35 17/17/36
f 14/14/37 16/16/38 13/13/39
f 10/10/40 18/18/41 11/11/42
f 18/18/43 10/10/44 19/19/45
f 20/20/46 17/17/47 15/15/48
f 17/17/49 20/20/50 21/21/51
f 17/17/52 21/21/53 22/22/54
f 22/22/55 21/21/56 23/23/57
f 23/23/58 21/21/59 24/24/60
f 23/23/61 24/24/62 19/19/63
f 19/19/64 24/24/65 18/18/66
f 25/25/67 26/26/68 27/8/69
f 26/26/70 25/25/71 28/27/72
f 29/28/73 30/29/74 31/30/75
f 30/29/76 29/28/77 32/31/78
f 33/32/79 34/11/80 35/9/81
f 34/11/82 33/32/83 36/33/84
f 37/34/85 38/35/86 39/36/87
f 38/35/88 37/34/89 40/37/90
f 41/38/91 42/39/92 43/40/93
f 42/39/94 41/38/95 44/41/96
f 45/42/97 46/43/98 47/44/99
f 46/43/100 45/42/101 48/45/102
f 49/46/103 50/11/104 51/47/105
f 50/11/106 49/46/107 52/33/108
f 53/48/109 54/49/110 55/50/111
f 54/49/112 53/48/113 56/51/114
f 57/12/115 58/19/116 59/10/117
f 58/19/118 57/12/119 60/13/120
f 61/22/121 62/16/122 63/17/123
f 62/16/124 61/22/125 64/23/126
f 62/16/127 64/23/128 60/13/129
f 60/13/130 64/23/131 58/19/132
f 65/52/133 66/53/134 67/54/135
f 66/53/136 65/52/137 68/55/138
f 69/56/139 70/57/140 71/58/141
f 70/57/142 69/56/143 72/59/144
f 73/60/145 74/61/146 75/62/147
f 74/61/148 73/60/149 76/63/150
f 77/64/151 78/65/152 79/66/153
f 78/65/154 77/64/155 80/67/156
f 81/68/157 82/69/158 83/70/159
f 82/69/160 81/68/161 84/71/162
f 85/72/163 86/73/164 87/74/165
f 86/73/166 85/72/167 88/75/168
f 89/76/169 90/77/170 91/78/171
f 90/77/172 89/76/173 92/79/174
f 93/80/175 94/81/176 95/82/177
f 94/81/178 93/80/179 96/83/180
#60 polygons

